<?xml version="1.0" encoding="utf-8"?>
<!-- Generator: Adobe Illustrator 22.0.1, SVG Export Plug-In . SVG Version: 6.00 Build 0)  -->
<svg version="1.1" id="Layer_1" xmlns="http://www.w3.org/2000/svg" xmlns:xlink="http://www.w3.org/1999/xlink" x="0px" y="0px"
	 viewBox="0 0 24 24" style="enable-background:new 0 0 24 24;" xml:space="preserve">
<style type="text/css">
	.st0{fill:#868E96;}
</style>
<title>Adobe Photoshop icon</title>
<path class="st0" d="M0,0.3v23.4h24V0.3H0z M1,1.3h22v21.4H1V1.3z M5.8,5.8c0-0.1,0.1-0.1,0.2-0.1c0.6,0,1.6-0.1,2.6-0.1
	c2.8,0,3.8,1.5,3.8,3.5c0,2.5-1.8,3.6-4.1,3.6c-0.4,0-0.5,0-0.8,0v3.8c0,0.1,0,0.1-0.1,0.1H5.9c-0.1,0-0.1,0-0.1-0.1L5.8,5.8
	L5.8,5.8z M7.6,11.1c0.2,0,0.4,0,0.8,0c1.2,0,2.3-0.4,2.3-2c0-1.3-0.8-1.9-2.1-1.9c-0.4,0-0.8,0-1,0L7.6,11.1L7.6,11.1z M16.2,9.9
	c-0.8,0-1.1,0.4-1.1,0.7c0,0.4,0.2,0.6,1.2,1.2c1.6,0.8,2.1,1.5,2.1,2.6c0,1.6-1.2,2.5-2.9,2.5c-0.9,0-1.6-0.2-2.1-0.4
	c-0.1,0-0.1-0.1-0.1-0.2v-1.5c0-0.1,0-0.1,0.1-0.1c0.6,0.4,1.4,0.6,2,0.6c0.8,0,1.1-0.3,1.1-0.8c0-0.4-0.2-0.7-1.2-1.2
	c-1.4-0.7-2-1.4-2-2.5c0-1.3,1-2.4,2.8-2.4c0.9,0,1.5,0.1,1.8,0.3c0.1,0.1,0.1,0.1,0.1,0.2v1.4c0,0.1,0,0.1-0.1,0.1
	C17.5,10.1,16.8,9.9,16.2,9.9L16.2,9.9z"/>
</svg>
