<?xml version="1.0" encoding="utf-8"?>
<!-- Generator: Adobe Illustrator 22.0.1, SVG Export Plug-In . SVG Version: 6.00 Build 0)  -->
<svg version="1.1" id="Layer_1" xmlns="http://www.w3.org/2000/svg" xmlns:xlink="http://www.w3.org/1999/xlink" x="0px" y="0px"
	 viewBox="0 0 24 24" style="enable-background:new 0 0 24 24;" xml:space="preserve">
<style type="text/css">
	.st0{fill:#6FDA44;}
</style>
<title>Upwork icon</title>
<path class="st0" d="M18.6,13.2c-1.1,0-2.1-0.5-3.1-1.2l0.2-1.1l0,0c0.2-1.1,0.8-3.1,2.8-3.1c1.5,0,2.7,1.2,2.7,2.7
	C21.3,11.9,20.1,13.2,18.6,13.2z M18.6,5c-2.5,0-4.5,1.6-5.3,4.4c-1.2-1.8-2.1-4-2.7-5.9H7.8v7.1c0,1.4-1.1,2.5-2.5,2.5
	c-1.4,0-2.5-1.1-2.5-2.5V3.5H0v7.1c0,2.9,2.4,5.3,5.3,5.3c2.9,0,5.3-2.4,5.3-5.3V9.4c0.5,1.1,1.2,2.2,2,3.2l-1.7,7.9h2.8l1.2-5.7
	c1.1,0.7,2.3,1.1,3.7,1.1c3,0,5.4-2.5,5.4-5.4C24,7.5,21.6,5,18.6,5z"/>
</svg>
